<?xml version="1.0" encoding="utf-8"?>
<!-- Generator: Adobe Illustrator 15.0.0, SVG Export Plug-In  -->
<!DOCTYPE svg PUBLIC "-//W3C//DTD SVG 1.1//EN" "http://www.w3.org/Graphics/SVG/1.1/DTD/svg11.dtd" [
	<!ENTITY ns_flows "http://ns.adobe.com/Flows/1.0/">
]>
<svg version="1.1"
	 xmlns="http://www.w3.org/2000/svg" xmlns:xlink="http://www.w3.org/1999/xlink" xmlns:a="http://ns.adobe.com/AdobeSVGViewerExtensions/3.0/"
	 x="0px" y="0px" width="40px" height="25px" viewBox="-9.052 -3.944 40 25"
	 overflow="visible" enable-background="new -9.052 -3.944 40 25" xml:space="preserve">
<defs>
</defs>
<g display="none">
	<path display="inline" fill="#D1D3D4" d="M11.947,16.002c-0.549,0.029-1.448,0.029-1.997,0l-7.379-0.393
		c-0.549-0.029-1.037-0.502-1.084-1.05L1.033,9.269C0.986,8.721,0.989,7.824,1.041,7.277L1.48,2.551
		c0.051-0.547,0.542-1.02,1.091-1.049L9.95,1.109c0.549-0.029,1.448-0.029,1.997,0l7.376,0.394c0.55,0.029,1.041,0.501,1.092,1.049
		l0.439,4.726c0.051,0.547,0.055,1.444,0.007,1.992l-0.453,5.291c-0.048,0.548-0.535,1.021-1.085,1.05L11.947,16.002z"/>
	<path display="inline" fill="none" stroke="#D1D3D4" stroke-width="2" stroke-linejoin="round" stroke-miterlimit="10" d="
		M11.947,16.002c-0.549,0.029-1.448,0.029-1.997,0l-7.379-0.393c-0.549-0.029-1.037-0.502-1.084-1.05L1.033,9.269
		C0.986,8.721,0.989,7.824,1.041,7.277L1.48,2.551c0.051-0.547,0.542-1.02,1.091-1.049L9.95,1.109c0.549-0.029,1.448-0.029,1.997,0
		l7.376,0.394c0.55,0.029,1.041,0.501,1.092,1.049l0.439,4.726c0.051,0.547,0.055,1.444,0.007,1.992l-0.453,5.291
		c-0.048,0.548-0.535,1.021-1.085,1.05L11.947,16.002z"/>
</g>
<path fill="#D1D3D4" stroke="#D1D3D4" stroke-width="2" stroke-linejoin="round" stroke-miterlimit="10" d="M21.053,14.123
	c0,1.036-0.867,1.877-1.938,1.877H2.99c-1.07,0-1.937-0.841-1.937-1.877V2.877C1.053,1.84,1.92,1,2.99,1h16.125
	c1.07,0,1.938,0.84,1.938,1.877V14.123z"/>
<polygon fill="#FFFFFF" stroke="#FFFFFF" stroke-width="2" stroke-linejoin="round" stroke-miterlimit="10" points="7.948,5.556 
	13.948,8.556 7.948,11.556 "/>
</svg>
